# xmcd
#
# Track frame offsets:
#   150
#   18722
#   35717
#   51252
#   65527
#   81433
#   96569
#   113044
#   130115
#   146239
#   162441
#   178055
#   191893
#   205156
#   223336
#   239106
#   254240
#
# Disc length: 3606 seconds
#
# Revision: 0
# Processed by: cddbd v1.5.2PL0 Copyright (c) Steve Scherf et al.
# Submitted via: uFREEDB ActiveX Control 1.5
#
DISCID=200e1411
DTITLE=CD AS 7 Melhores 2008 CD 2 - CD AS 7 Melhores 2008 CD 2
DYEAR=1900
DGENRE=Alternative
TTITLE0=CD AS 7 Melhores 2008 CD 2 F01
TTITLE1=CD AS 7 Melhores 2008 CD 2 F02
TTITLE2=CD AS 7 Melhores 2008 CD 2 F03
TTITLE3=CD AS 7 Melhores 2008 CD 2 F04
TTITLE4=CD AS 7 Melhores 2008 CD 2 F05
TTITLE5=CD AS 7 Melhores 2008 CD 2 F06
TTITLE6=CD AS 7 Melhores 2008 CD 2 F07
TTITLE7=CD AS 7 Melhores 2008 CD 2 F08
TTITLE8=CD AS 7 Melhores 2008 CD 2 F09
TTITLE9=CD AS 7 Melhores 2008 CD 2 F010
TTITLE10=CD AS 7 Melhores 2008 CD 2 F011
TTITLE11=CD AS 7 Melhores 2008 CD 2 F012
TTITLE12=CD AS 7 Melhores 2008 CD 2 F013
TTITLE13=CD AS 7 Melhores 2008 CD 2 F014
TTITLE14=CD AS 7 Melhores 2008 CD 2 F015
TTITLE15=CD AS 7 Melhores 2008 CD 2 F016
TTITLE16=CD AS 7 Melhores 2008 CD 2 F017
EXTD=
EXTT0=
EXTT1=
EXTT2=
EXTT3=
EXTT4=
EXTT5=
EXTT6=
EXTT7=
EXTT8=
EXTT9=
EXTT10=
EXTT11=
EXTT12=
EXTT13=
EXTT14=
EXTT15=
EXTT16=
PLAYORDER=
